<svg viewBox="0 0 64 64" xmlns="http://www.w3.org/2000/svg"><g data-name="Layer 21"><path d="M48 38.308V26h-4v8.615l4 3.693z" fill="#758190" class="fill-758190"></path><path d="M4 56a2 2 0 0 1-2-2v-8a4 4 0 0 1 4-4h52a4 4 0 0 1 4 4v8a2 2 0 0 1-2 2Z" fill="#eda113" class="fill-f9d18b"></path><path d="M59 48h3v-2a4 4 0 0 0-4-4h-2v3a3 3 0 0 0 3 3Z" fill="#ed5c58" class="fill-ed5c58"></path><path d="M9 52a36.8 36.8 0 0 0 25.569-10H6a4 4 0 0 0-4 4v5.369A38.96 38.96 0 0 0 9 52Z" fill="#fbe3b9" class="fill-fbe3b9"></path><path d="M2 46v4a4 4 0 0 0 4-4v-4a4 4 0 0 0-4 4Z" fill="#ed5c58" class="fill-ed5c58"></path><path d="m8 42 4.734-7.1a11 11 0 0 1 9.153-4.9H34.7a11 11 0 0 1 7.461 2.917L52 42Z" fill="#7fcdee" class="fill-7fcdee"></path><path d="M34.569 42a31.323 31.323 0 0 0 6.876-9.684A11 11 0 0 0 34.7 30H21.887a11 11 0 0 0-9.153 4.9L8 42Z" fill="#b2e1f5" class="fill-b2e1f5"></path><path d="M30 2h32v20H30z" fill="#eda113" class="fill-f9d18b"></path><path d="M30 2v14.723A19.852 19.852 0 0 0 37 18c9.779 0 17.825-7 18.876-16Z" fill="#fbe3b9" class="fill-fbe3b9"></path><circle cx="14" cy="56" r="6" fill="#758190" class="fill-758190"></circle><circle cx="14" cy="56" r="2" fill="#ffffff" class="fill-ffffff"></circle><circle cx="48" cy="56" r="6" fill="#758190" class="fill-758190"></circle><circle cx="48" cy="56" r="2" fill="#ffffff" class="fill-ffffff"></circle><path d="M25 30h4v12h-4z" fill="#758190" class="fill-758190"></path><path d="M20 26h16v4H20z" fill="#eda113" class="fill-f9d18b"></path><path d="M42 22h8v4h-8z" fill="#758190" class="fill-758190"></path><path d="M8 56H4a2 2 0 0 1-2-2v-8a4 4 0 0 1 4-4h52a4 4 0 0 1 4 4v8a2 2 0 0 1-2 2h-6M8 42l4.734-7.1a11 11 0 0 1 9.153-4.9H34.7a11 11 0 0 1 7.461 2.917L52 42" fill="none" stroke="#000000" stroke-linejoin="round" stroke-width="2px" class="stroke-000000"></path><path d="M62 48h-3a3 3 0 0 1-3-3v-3" fill="none" stroke="#000000" stroke-linejoin="round" stroke-width="2px" class="stroke-000000"></path><circle cx="48" cy="56" r="6" fill="none" stroke="#000000" stroke-linejoin="round" stroke-width="2px" class="stroke-000000"></circle><circle cx="14" cy="56" r="6" fill="none" stroke="#000000" stroke-linejoin="round" stroke-width="2px" class="stroke-000000"></circle><path d="M6 42v4a4 4 0 0 1-4 4M36.023 30v-4H20v4" fill="none" stroke="#000000" stroke-linejoin="round" stroke-width="2px" class="stroke-000000"></path><circle cx="48" cy="56" r="2" fill="none" stroke="#000000" stroke-linejoin="round" stroke-width="2px" class="stroke-000000"></circle><circle cx="14" cy="56" r="2" fill="none" stroke="#000000" stroke-linejoin="round" stroke-width="2px" class="stroke-000000"></circle><path d="M42 56H20M25.023 30v12M29.023 30v12M23 47v2M25 45v2M27 47v2M29 45v2M31 47v2M33 45v2M35 47v2M37 45v2M39 47v2M30 2h32v20H30zM33 9h6M36 9v7" fill="none" stroke="#000000" stroke-linejoin="round" stroke-width="2px" class="stroke-000000"></path><path d="M42 16v-5a2 2 0 0 1 2-2 2 2 0 0 1 2 2v5M42 13h4M50 8a4.828 4.828 0 0 0 1.414 3.414l1.172 1.172A4.828 4.828 0 0 1 54 16" fill="none" stroke="#000000" stroke-linejoin="round" stroke-width="2px" class="stroke-000000"></path><path d="M54 8a4.828 4.828 0 0 1-1.414 3.414l-1.172 1.172A4.828 4.828 0 0 0 50 16M58 8v8M42 22v4h8v-4M44 26v9M48 26v12" fill="none" stroke="#000000" stroke-linejoin="round" stroke-width="2px" class="stroke-000000"></path></g></svg>